{
  "accessors": [
    {
      "bufferView": 2,
      "componentType": 5126,
      "count": 29552,
      "max": [
        10.893500328063965,
        112.45559692382813,
        238.1741943359375
      ],
      "min": [
        -154.34019470214844,
        -149.70089721679688,
        -0.15459999442100525
      ],
      "type": "VEC3"
    },
    {
      "bufferView": 2,
      "byteOffset": 354624,
      "componentType": 5126,
      "count": 29552,
      "max": [
        0.9999927282333374,
        0.9999204874038696,
        1.0
      ],
      "min": [
        -0.9999648332595825,
        -0.9999916553497314,
        -1.0
      ],
      "type": "VEC3"
    },
    {
      "bufferView": 1,
      "componentType": 5126,
      "count": 29552,
      "max": [
        0.9980000257492065,
        0.9904999732971191
      ],
      "min": [
        0.0020000000949949026,
        0.0020000000949949026
      ],
      "type": "VEC2"
    },
    {
      "bufferView": 0,
      "componentType": 5125,
      "count": 111996,
      "type": "SCALAR"
    },
    {
      "bufferView": 2,
      "byteOffset": 709248,
      "componentType": 5126,
      "count": 43763,
      "max": [
        211.8874053955078,
        196.53700256347656,
        287.73541259765625
      ],
      "min": [
        -61.6416015625,
        -239.6927032470703,
        -0.7556999921798706
      ],
      "type": "VEC3"
    },
    {
      "bufferView": 2,
      "byteOffset": 1234404,
      "componentType": 5126,
      "count": 43763,
      "max": [
        0.9999992847442627,
        0.9997743964195251,
        0.9999984502792358
      ],
      "min": [
        -0.9999876022338867,
        -0.9999872446060181,
        -0.9999969005584717
      ],
      "type": "VEC3"
    },
    {
      "bufferView": 1,
      "byteOffset": 236416,
      "componentType": 5126,
      "count": 43763,
      "max": [
        0.9965999722480774,
        0.9980000257492065
      ],
      "min": [
        0.0020000000949949026,
        0.0020000000949949026
      ],
      "type": "VEC2"
    },
    {
      "bufferView": 0,
      "byteOffset": 447984,
      "componentType": 5125,
      "count": 152262,
      "type": "SCALAR"
    },
    {
      "bufferView": 2,
      "byteOffset": 1759560,
      "componentType": 5126,
      "count": 3726,
      "max": [
        88.25289916992188,
        23.26409912109375,
        284.6719055175781
      ],
      "min": [
        -28.22010040283203,
        -67.34480285644531,
        109.41449737548828
      ],
      "type": "VEC3"
    },
    {
      "bufferView": 2,
      "byteOffset": 1804272,
      "componentType": 5126,
      "count": 3726,
      "max": [
        0.9989849925041199,
        0.999108612537384,
        0.9998000264167786
      ],
      "min": [
        -0.9998801946640015,
        -0.9987664222717285,
        -0.999795138835907
      ],
      "type": "VEC3"
    },
    {
      "bufferView": 1,
      "byteOffset": 586520,
      "componentType": 5126,
      "count": 3726,
      "max": [
        0.9976000189781189,
        0.7797999978065491
      ],
      "min": [
        0.0005000000237487257,
        0.049800001084804535
      ],
      "type": "VEC2"
    },
    {
      "bufferView": 0,
      "byteOffset": 1057032,
      "componentType": 5125,
      "count": 18540,
      "type": "SCALAR"
    }
  ],
  "asset": {
    "extras": {
      "author": "MaxNRG (https://sketchfab.com/MaxNRG)",
      "license": "CC-BY-4.0 (http://creativecommons.org/licenses/by/4.0/)",
      "source": "https://sketchfab.com/3d-models/belyash-a39209c0eb804a7da887777fd48f8c98",
      "title": "Belyash"
    },
    "generator": "Sketchfab-15.18.0",
    "version": "2.0"
  },
  "bufferViews": [
    {
      "buffer": 0,
      "byteLength": 1131192,
      "name": "floatBufferViews",
      "target": 34963
    },
    {
      "buffer": 0,
      "byteLength": 616328,
      "byteOffset": 1131192,
      "byteStride": 8,
      "name": "floatBufferViews",
      "target": 34962
    },
    {
      "buffer": 0,
      "byteLength": 1848984,
      "byteOffset": 1747520,
      "byteStride": 12,
      "name": "floatBufferViews",
      "target": 34962
    }
  ],
  "buffers": [
    {
      "byteLength": 3596504,
      "uri": "scene.bin"
    }
  ],
  "extensionsUsed": [
    "KHR_materials_specular",
    "KHR_materials_clearcoat"
  ],
  "images": [
    {
      "uri": "textures/MI_Belyash_Body_baseColor.png"
    },
    {
      "uri": "textures/MI_Belyash_Head_baseColor.png"
    },
    {
      "uri": "textures/M_Emiss_Inst_baseColor.png"
    }
  ],
  "materials": [
    {
      "doubleSided": true,
      "extensions": {
        "KHR_materials_specular": {
          "specularColorFactor": [
            1.0,
            1.0,
            1.0
          ],
          "specularFactor": 0.0
        }
      },
      "name": "MI_Belyash_Body",
      "pbrMetallicRoughness": {
        "baseColorTexture": {
          "index": 0
        },
        "metallicFactor": 0.21225167128160052,
        "roughnessFactor": 0.6
      }
    },
    {
      "doubleSided": true,
      "extensions": {
        "KHR_materials_specular": {
          "specularColorFactor": [
            1.0,
            1.0,
            1.0
          ],
          "specularFactor": 0.0
        }
      },
      "name": "MI_Belyash_Head",
      "pbrMetallicRoughness": {
        "baseColorTexture": {
          "index": 1
        },
        "metallicFactor": 0.0,
        "roughnessFactor": 0.6
      }
    },
    {
      "doubleSided": true,
      "extensions": {
        "KHR_materials_clearcoat": {
          "clearcoatFactor": 1.0,
          "clearcoatRoughnessFactor": 0.04
        },
        "KHR_materials_specular": {
          "specularColorFactor": [
            1.0,
            1.0,
            1.0
          ],
          "specularFactor": 0.0
        }
      },
      "name": "M_Emiss_Inst",
      "pbrMetallicRoughness": {
        "baseColorTexture": {
          "index": 2
        },
        "metallicFactor": 0.2547627393418205,
        "roughnessFactor": 0.6
      }
    }
  ],
  "meshes": [
    {
      "name": "Object_0",
      "primitives": [
        {
          "attributes": {
            "NORMAL": 1,
            "POSITION": 0,
            "TEXCOORD_0": 2
          },
          "indices": 3,
          "material": 0,
          "mode": 4
        }
      ]
    },
    {
      "name": "Object_1",
      "primitives": [
        {
          "attributes": {
            "NORMAL": 5,
            "POSITION": 4,
            "TEXCOORD_0": 6
          },
          "indices": 7,
          "material": 1,
          "mode": 4
        }
      ]
    },
    {
      "name": "Object_2",
      "primitives": [
        {
          "attributes": {
            "NORMAL": 9,
            "POSITION": 8,
            "TEXCOORD_0": 10
          },
          "indices": 11,
          "material": 2,
          "mode": 4
        }
      ]
    }
  ],
  "nodes": [
    {
      "children": [
        1
      ],
      "matrix": [
        1.0,
        0.0,
        0.0,
        0.0,
        0.0,
        2.220446049250313e-16,
        -1.0,
        0.0,
        0.0,
        1.0,
        2.220446049250313e-16,
        0.0,
        0.0,
        0.0,
        0.0,
        1.0
      ],
      "name": "Sketchfab_model"
    },
    {
      "children": [
        2,
        3,
        4
      ],
      "name": "Belyash.obj.cleaner.materialmerger.gles"
    },
    {
      "mesh": 0,
      "name": "Object_2"
    },
    {
      "mesh": 1,
      "name": "Object_3"
    },
    {
      "mesh": 2,
      "name": "Object_4"
    }
  ],
  "samplers": [
    {
      "magFilter": 9729,
      "minFilter": 9987,
      "wrapS": 10497,
      "wrapT": 10497
    }
  ],
  "scene": 0,
  "scenes": [
    {
      "name": "Sketchfab_Scene",
      "nodes": [
        0
      ]
    }
  ],
  "textures": [
    {
      "sampler": 0,
      "source": 0
    },
    {
      "sampler": 0,
      "source": 1
    },
    {
      "sampler": 0,
      "source": 2
    }
  ]
}
